#!OML:ASF F:\VICON\USERDATA\INSTALL\Justin_Nancy\Justin_Nancy.ASF
:FULLY-SPECIFIED
:DEGREES
79
root -7.91278 17.3621 -18.6543 -1.56353 -2.42623 4.20236
lowerback 6.10462 -0.866053 -4.37383
upperback 0.83156 -1.40822 1.28536
thorax -2.42624 -0.659301 3.90105
lowerneck -14.5992 -2.68494 -10.1338
upperneck 23.4572 -2.34726 4.49677
head 10.0654 -1.47745 2.98708
rclavicle -2.86747e-014 -7.95139e-015
rhumerus -30.7646 -16.7278 -76.5586
rradius 27.7541
rwrist 9.6722
rhand -14.7145 13.343
rfingers 7.12502
rthumb 11.4401 -16.3249
lclavicle -2.86747e-014 -7.95139e-015
lhumerus -29.2713 6.28096 84.8448
lradius 30.9073
lwrist -8.41857
lhand -17.8148 24.6449
lfingers 7.12502
lthumb 8.44903 54.4559
rfemur -27.7634 -2.79936 15.4688
rtibia 62.3224
rfoot -8.23735 -2.91795
rtoes 2.77253
lfemur -8.89508 0.229127 -31.349
ltibia 27.4475
lfoot -14.1029 -1.03401
ltoes 5.96723
80
root -7.91915 17.3526 -18.5183 -1.49138 -2.30878 4.14958
lowerback 6.06702 -0.93031 -4.4193
upperback 0.872883 -1.49323 1.33631
thorax -2.35144 -0.703973 3.9845
lowerneck -14.4928 -2.63675 -10.119
upperneck 23.2745 -2.30455 4.54528
head 9.97565 -1.44806 3.00487
rclavicle -1.43125e-014 1.43125e-014
rhumerus -30.6488 -16.8291 -76.562
rradius 27.5777
rwrist 9.90212
rhand -15.0726 13.239
rfingers 7.12502
rthumb 11.0947 -16.4477
lclavicle -1.43125e-014 1.43125e-014
lhumerus -28.8567 5.90727 84.811
lradius 31.5591
lwrist -7.98685
lhand -17.3317 26.9676
lfingers 7.12502
lthumb 8.91526 56.7592
rfemur -28.3984 -2.44726 15.4892
rtibia 60.6215
rfoot -8.34464 -3.1549
rtoes 2.58769
lfemur -8.47349 0.2587 -31.3006
ltibia 27.4722
lfoot -14.381 -1.05545
ltoes 6.39874
81
root -7.92483 17.3417 -18.3819 -1.34242 -2.13993 4.27007
lowerback 5.95385 -0.958961 -4.64252
upperback 0.987516 -1.53886 1.34285
thorax -2.15873 -0.732594 4.11588
lowerneck -14.8106 -2.67941 -9.99185
upperneck 23.134 -2.33094 4.4364
head 9.98522 -1.45493 2.93797
rclavicle -1.95803e-014 -1.98785e-014
rhumerus -30.4612 -17.0517 -76.5385
rradius 27.5293
rwrist 10.029
rhand -15.0511 13.9967
rfingers 7.12502
rthumb 11.1155 -15.6889
lclavicle -1.95803e-014 -1.98785e-014
lhumerus -28.2517 5.52888 84.8448
lradius 32.2447
lwrist -7.71304
lhand -17.2231 27.556
lfingers 7.12502
lthumb 9.02006 57.3432
rfemur -28.9968 -2.19734 15.2757
rtibia 58.8255
rfoot -8.46804 -3.45222
rtoes 2.08419
lfemur -8.0733 0.383927 -31.4278
ltibia 27.4104
lfoot -14.7209 -1.05385
ltoes 6.24275
82
root -7.92808 17.3366 -18.2448 -1.16164 -1.97004 4.31142
lowerback 6.01697 -1.00588 -4.81793
upperback 0.877082 -1.61499 1.43548
thorax -2.29271 -0.762954 4.32076
lowerneck -14.8733 -2.66247 -10.0544
upperneck 23.1738 -2.28276 4.4298
head 10.0087 -1.43908 2.95288
rclavicle -3.37934e-015 3.97569e-015
rhumerus -30.7255 -16.9023 -76.4188
rradius 27.7533
rwrist 9.68138
rhand -14.6441 14.855
rfingers 7.12502
rthumb 11.508 -14.8091
lclavicle -3.37934e-015 3.97569e-015
lhumerus -28.0439 5.2423 84.9158
lradius 32.8805
lwrist -7.67665
lhand -17.0175 27.4258
lfingers 7.12502
lthumb 9.21841 57.2043
rfemur -29.5006 -1.96732 15.1362
rtibia 56.8684
rfoot -8.72686 -3.87795
rtoes 0.276101
lfemur -7.69308 0.401059 -31.4885
ltibia 27.2618
lfoot -15.0596 -1.02244
ltoes 5.9035
83
root -7.93219 17.336 -18.1085 -1.01789 -1.89263 4.39415
lowerback 6.20097 -1.0079 -5.0509
upperback 0.644277 -1.64456 1.48849
thorax -2.62564 -0.760344 4.51982
lowerneck -14.7101 -2.67223 -10.0949
upperneck 23.3775 -2.30805 4.4292
head 10.0536 -1.46057 2.9599
rclavicle 1.55549e-014 4.77083e-015
rhumerus -31.3015 -16.6487 -76.3481
rradius 28.159
rwrist 9.24741
rhand -14.3806 14.5756
rfingers 7.12502
rthumb 11.7621 -15.0742
lclavicle 1.55549e-014 4.77083e-015
lhumerus -28.0615 4.87335 84.9253
lradius 33.428
lwrist -7.62533
lhand -17.1569 27.2614
lfingers 7.12502
lthumb 9.08395 57.0458
rfemur -29.9034 -1.62068 14.9609
rtibia 54.7829
rfoot -8.95173 -4.4845
rtoes -2.31766
lfemur -7.24813 0.360353 -31.6071
ltibia 27.0027
lfoot -15.3268 -0.946869
ltoes 5.53599
84
root -7.93413 17.3437 -17.9726 -0.928897 -1.77459 4.4227
lowerback 6.1992 -0.991563 -5.06624
upperback 0.693463 -1.62417 1.44246
thorax -2.57688 -0.752752 4.47789
lowerneck -14.8258 -2.76305 -9.99975
upperneck 23.3132 -2.45888 4.47839
head 10.0635 -1.51341 2.94025
rclavicle -3.99557e-014 -1.59028e-015
rhumerus -31.427 -16.7372 -76.4348
rradius 28.4485
rwrist 9.05443
rhand -14.4265 13.7345
rfingers 7.12502
rthumb 11.7178 -15.9177
lclavicle -3.99557e-014 -1.59028e-015
lhumerus -27.6846 4.53435 84.8475
lradius 34.0659
lwrist -7.4015
lhand -16.8623 27.4932
lfingers 7.12502
lthumb 9.36825 57.2651
rfemur -30.1789 -1.25134 14.8066
rtibia 52.5353
rfoot -8.45774 -5.21904
rtoes -0.532887
lfemur -6.68343 0.455473 -31.6475
ltibia 26.6878
lfoot -15.6093 -1.04715
ltoes 5.30529
85
root -7.94105 17.3504 -17.8373 -0.69308 -1.5166 4.33818
lowerback 5.8834 -1.12377 -4.98647
upperback 0.87787 -1.77635 1.43226
thorax -2.19436 -0.845087 4.42026
lowerneck -15.3048 -2.79775 -9.9706
upperneck 23.2625 -2.49586 4.61485
head 10.1399 -1.50602 2.97699
rclavicle 1.963e-014 6.36111e-015
rhumerus -31.0022 -17.1481 -76.565
rradius 28.25
rwrist 9.48459
rhand -14.666 13.5341
rfingers 7.12502
rthumb 11.4869 -16.1312
lclavicle 1.963e-014 6.36111e-015
lhumerus -27.1392 4.32836 84.7273
lradius 34.7373
lwrist -6.85452
lhand -16.5669 28.223
lfingers 7.12502
lthumb 9.6532 57.9818
rfemur -30.522 -0.872547 14.7698
rtibia 50.1254
rfoot -7.1432 -6.25037
rtoes 4.22626
lfemur -6.2111 0.543713 -31.5046
ltibia 26.3299
lfoot -15.8659 -1.36154
ltoes 5.66867
86
root -7.95041 17.3505 -17.701 -0.552654 -1.3842 4.20287
lowerback 5.83286 -1.23748 -4.9696
upperback 0.869423 -1.92241 1.51557
thorax -2.15602 -0.918948 4.50619
lowerneck -15.3667 -2.72292 -10.0293
upperneck 23.295 -2.39311 4.70921
head 10.1563 -1.4531 3.03496
rclavicle -8.59744e-015 -3.10104e-014
rhumerus -31.0392 -16.8992 -76.6702
rradius 28.2982
rwrist 9.25636
rhand -14.804 13.7377
rfingers 7.12502
rthumb 11.3538 -15.9349
lclavicle -8.59744e-015 -3.10104e-014
lhumerus -26.7884 4.28679 84.6067
lradius 35.107
lwrist -6.67672
lhand -16.3236 28.4646
lfingers 7.12502
lthumb 9.888 58.2124
rfemur -30.5841 -0.308952 14.7736
rtibia 47.585
rfoot -5.77302 -7.36128
rtoes 8.50322
lfemur -5.59597 0.571066 -31.3253
ltibia 25.8915
lfoot -16.0809 -1.46177
ltoes 5.52113
87
root -7.95442 17.3481 -17.5645 -0.453834 -1.34348 4.21341
lowerback 5.90909 -1.26135 -5.079
upperback 0.749308 -1.96611 1.54849
thorax -2.31326 -0.932318 4.61058
lowerneck -15.1069 -2.68146 -10.077
upperneck 23.3425 -2.37525 4.79782
head 10.1235 -1.44283 3.0787
rclavicle 1.80397e-014 -5.56597e-015
rhumerus -31.4851 -16.7262 -76.635
rradius 28.5858
rwrist 8.94856
rhand -14.4095 14.4683
rfingers 7.12502
rthumb 11.7343 -15.183
lclavicle 1.80397e-014 -5.56597e-015
lhumerus -26.5312 4.03603 84.4931
lradius 35.3145
lwrist -6.80317
lhand -16.4024 28.0395
lfingers 7.12502
lthumb 9.81192 57.7909
rfemur -30.5379 0.149469 14.6108
rtibia 44.966
rfoot -7.52595 -8.56651
rtoes 0.23122
lfemur -4.89505 0.502984 -31.3584
ltibia 25.3843
lfoot -16.2924 -1.32652
ltoes 5.4263
88
root -7.95872 17.3522 -17.4237 -0.345181 -1.18433 4.32478
lowerback 6.02787 -1.28243 -5.2698
upperback 0.604649 -2.01535 1.54489
thorax -2.51762 -0.945329 4.72561
lowerneck -14.9053 -2.73476 -9.97443
upperneck 23.313 -2.46425 4.66077
head 10.0792 -1.49216 3.00045
rclavicle 1.04362e-015 1.35174e-014
rhumerus -31.8734 -16.5064 -76.6109
rradius 28.7526
rwrist 8.47807
rhand -14.1405 14.6548
rfingers 7.12502
rthumb 11.9936 -14.9815
lclavicle 1.04362e-015 1.35174e-014
lhumerus -26.4861 3.81109 84.4025
lradius 35.8139
lwrist -6.96873
lhand -16.4776 28.1107
lfingers 7.12502
lthumb 9.73936 57.8655
rfemur -30.4937 0.506637 14.3146
rtibia 42.246
rfoot -7.22387 -9.65764
rtoes -0.326258
lfemur -4.17196 0.498236 -31.4898
ltibia 24.8926
lfoot -16.5552 -1.28508
ltoes 4.96316
89
root -7.9648 17.3602 -17.2821 -0.190344 -1.11982 4.40523
lowerback 5.88834 -1.30864 -5.43034
upperback 0.595479 -2.0534 1.5546
thorax -2.43845 -0.965086 4.82468
lowerneck -14.731 -2.72147 -9.96969
upperneck 23.1269 -2.45802 4.64345
head 9.97846 -1.48894 2.99173
rclavicle -4.72611e-014 3.97569e-015
rhumerus -31.7538 -16.7151 -76.5732
rradius 28.4217
rwrist 8.84571
rhand -14.1324 14.623
rfingers 7.12502
rthumb 12.0014 -15.0129
lclavicle -4.72611e-014 3.97569e-015
lhumerus -26.2899 3.58389 84.3531
lradius 36.395
lwrist -6.87205
lhand -13.3872 41.2422
lfingers 7.12502
lthumb 12.72 70.8348
rfemur -30.4526 0.898597 14.0881
rtibia 39.4489
rfoot -6.95869 -11.0396
rtoes -0.436712
lfemur -3.53037 0.612901 -31.5617
ltibia 24.426
lfoot -16.7197 -1.32877
ltoes 4.44922
90
root -7.97403 17.3586 -17.1481 0.118553 -1.23457 4.32228
lowerback 5.51592 -1.31738 -5.51314
upperback 0.669763 -2.04633 1.65153
thorax -2.14719 -0.9721 4.95767
lowerneck -14.8331 -2.67088 -10.1397
upperneck 23.0711 -2.38182 4.84685
head 9.97573 -1.44319 3.10181
rclavicle 2.66371e-014 -2.46493e-014
rhumerus -31.3964 -16.8478 -76.6258
rradius 28.1564
rwrist 9.10462
rhand -14.2826 14.8641
rfingers 7.12502
rthumb 11.8566 -14.7802
lclavicle 2.66371e-014 -2.46493e-014
lhumerus -25.7284 3.54825 84.284
lradius 36.6623
lwrist -6.76139
lhand -16.3427 29.6499
lfingers 7.12502
lthumb 9.86955 59.3986
rfemur -30.5091 1.40922 14.0989
rtibia 36.5397
rfoot -6.74515 -12.4654
rtoes -0.782435
lfemur -3.13027 0.8183 -31.4483
ltibia 24.008
lfoot -16.858 -1.38972
ltoes 4.66325
91
root -7.98026 17.349 -17.0087 0.380119 -1.34927 4.26805
lowerback 5.31506 -1.27157 -5.56437
upperback 0.660973 -1.97621 1.70898
thorax -2.04883 -0.93967 5.03569
lowerneck -15.097 -2.7521 -10.0877
upperneck 23.1579 -2.46124 4.76646
head 10.0627 -1.48322 3.05455
rclavicle 1.06847e-014 -1.27222e-014
rhumerus -31.3988 -16.6756 -76.7019
rradius 28.2013
rwrist 8.94064
rhand -14.6231 14.9301
rfingers 7.12502
rthumb 11.5282 -14.7329
lclavicle 1.06847e-014 -1.27222e-014
lhumerus -25.2152 3.44372 84.2285
lradius 36.6287
lwrist -6.86709
lhand -15.679 29.9641
lfingers 7.12502
lthumb 10.5098 59.6813
rfemur -30.4463 1.69197 14.0934
rtibia 33.6
rfoot -6.35433 -13.5141
rtoes -1.40409
lfemur -2.7051 1.07797 -31.4026
ltibia 23.6485
lfoot -17.0753 -1.38222
ltoes 4.5208
92
root -7.98737 17.3388 -16.8671 0.47994 -1.24294 4.24591
lowerback 5.29914 -1.27133 -5.55536
upperback 0.596209 -1.97657 1.66999
thorax -2.10872 -0.936378 4.99065
lowerneck -14.9346 -2.82343 -9.84846
upperneck 23.018 -2.59564 4.59438
head 9.98708 -1.54292 2.93325
rclavicle 2.50469e-014 -7.15625e-015
rhumerus -31.6601 -16.784 -76.6925
rradius 28.1548
rwrist 9.02058
rhand -14.9802 15.1884
rfingers 7.12502
rthumb 11.1838 -14.4935
lclavicle 2.50469e-014 -7.15625e-015
lhumerus -25.045 3.09678 84.1111
lradius 36.8791
lwrist -6.79671
lhand -16.0482 30.2907
lfingers 7.12502
lthumb 10.1537 60.0257
rfemur -30.0837 1.89714 14.0298
rtibia 30.6842
rfoot -6.14042 -14.5377
rtoes -0.845946
lfemur -2.1185 1.18535 -31.3702
ltibia 23.3459
lfoot -17.2661 -1.43994
ltoes 4.83003
